<svg width="1920" height="1080" viewBox="0 0 1920 1080" fill="none" xmlns="http://www.w3.org/2000/svg">
<g clip-path="url(#clip0_1155_6)">
<rect width="1920" height="1080" fill="#FFF6D8"/>
<path d="M-199 455C-199 455 335.593 203.571 660.5 255.5C985.407 307.429 1221.75 379.993 1497.92 243.918C1979.09 6.83153 2347.5 -517 2347.5 -517" stroke="#66ABA5" stroke-width="33"/>
<path d="M1971.5 1025C1971.5 1025 1635.54 804.392 1391 785C1108.27 762.58 977.581 993.349 694 989C381.059 984.201 -59.5 716 -59.5 716" stroke="#E26B5A" stroke-width="32"/>
<path d="M2090.5 391C2090.5 391 1671.06 760.666 1285.32 604.543C1004.89 491.041 536.976 499.541 262.387 552.042C129.68 577.415 -196.5 634.543 -196.5 634.543" stroke="#F1B04E" stroke-width="16"/>
</g>
<defs>
<clipPath id="clip0_1155_6">
<rect width="1920" height="1080" fill="white"/>
</clipPath>
</defs>
</svg>
